<svg width="188" height="25" viewBox="0 0 188 25" fill="none" xmlns="http://www.w3.org/2000/svg">
<path d="M108.495 22.5394C107.335 22.5394 106.346 22.4123 105.53 22.1579C104.713 21.9248 103.929 21.6387 103.177 21.2996V17.6755C103.671 17.9934 104.187 18.3007 104.724 18.5974C105.282 18.8729 105.873 19.0955 106.497 19.265C107.141 19.4346 107.829 19.5193 108.559 19.5193C109.419 19.5193 110.053 19.3604 110.461 19.0425C110.891 18.7034 111.106 18.3007 111.106 17.8344C111.106 17.3894 110.945 17.0503 110.622 16.8172C110.3 16.5628 109.881 16.3509 109.365 16.1813C108.849 16.0118 108.302 15.8422 107.721 15.6727C107.184 15.5455 106.636 15.376 106.078 15.1641C105.54 14.9521 105.046 14.666 104.595 14.3057C104.144 13.9454 103.778 13.4898 103.499 12.9387C103.241 12.3665 103.112 11.6777 103.112 10.8724C103.112 9.91864 103.306 9.11328 103.692 8.45628C104.079 7.79928 104.584 7.26944 105.207 6.86677C105.83 6.46409 106.518 6.17797 107.27 6.00842C108.022 5.81768 108.753 5.72231 109.462 5.72231C110.687 5.7647 111.675 5.91305 112.427 6.16738C113.179 6.40051 113.888 6.70781 114.555 7.0893L114.587 10.3637C113.835 9.96103 113.104 9.60074 112.395 9.28283C111.686 8.94374 110.88 8.77419 109.978 8.77419C109.14 8.77419 108.484 8.92254 108.011 9.21925C107.56 9.49477 107.335 9.88685 107.335 10.3955C107.335 10.8406 107.474 11.2009 107.754 11.4764C108.033 11.7519 108.398 11.9638 108.849 12.1122C109.301 12.2605 109.795 12.4089 110.332 12.5572C110.869 12.7056 111.428 12.8751 112.008 13.0659C112.588 13.2354 113.126 13.4898 113.62 13.8289C114.114 14.168 114.512 14.6236 114.812 15.1958C115.135 15.7469 115.296 16.4887 115.296 17.4212C115.274 18.6504 114.941 19.6465 114.297 20.4095C113.652 21.1512 112.803 21.6917 111.75 22.0308C110.719 22.3699 109.634 22.5394 108.495 22.5394Z" fill="#05164D"/>
<path d="M124.083 22.5712C122.407 22.5712 121.129 22.1685 120.248 21.3632C119.367 20.5366 118.926 19.3498 118.926 17.8027V9.21925H116.412V6.04022H118.926V1.62135H123.149V6.04022H126.92V9.21925H123.149V17.1668C123.149 17.8238 123.278 18.3113 123.535 18.6292C123.793 18.9471 124.244 19.1061 124.889 19.1061C125.233 19.1061 125.587 19.0531 125.953 18.9471C126.34 18.8199 126.662 18.6716 126.92 18.502V21.999C126.49 22.2109 126.017 22.3593 125.502 22.444C125.007 22.5288 124.535 22.5712 124.083 22.5712Z" fill="#05164D"/>
<path d="M135.636 22.5394C134.734 22.5394 133.874 22.4546 133.058 22.2851C132.241 22.1155 131.511 21.84 130.866 21.4585C130.221 21.0559 129.706 20.5154 129.319 19.8372C128.954 19.1378 128.771 18.2689 128.771 17.2304C128.771 16.1496 128.997 15.2382 129.448 14.4965C129.899 13.7335 130.555 13.1613 131.414 12.7798C132.295 12.3771 133.369 12.1758 134.637 12.1758C135.411 12.1758 136.131 12.2499 136.797 12.3983C137.463 12.5255 138.065 12.7056 138.602 12.9387C139.139 13.1719 139.579 13.4262 139.923 13.7017L140.213 15.9588C139.762 15.6621 139.182 15.429 138.473 15.2594C137.785 15.0687 137.033 14.9733 136.217 14.9733C135.078 14.9733 134.229 15.1535 133.67 15.5137C133.112 15.874 132.832 16.4357 132.832 17.1986C132.832 17.7285 132.983 18.1735 133.283 18.5338C133.584 18.8729 133.971 19.1378 134.444 19.3286C134.917 19.4981 135.411 19.5829 135.926 19.5829C137.108 19.5829 137.957 19.5087 138.473 19.3604C139.01 19.1908 139.279 18.8411 139.279 18.3113V11.985C139.279 10.9465 138.946 10.1942 138.279 9.7279C137.613 9.24045 136.679 8.99672 135.475 8.99672C134.551 8.99672 133.606 9.15567 132.639 9.47357C131.672 9.77029 130.888 10.1624 130.286 10.6498V6.99393C130.866 6.63363 131.736 6.31573 132.897 6.04022C134.057 5.7647 135.303 5.62694 136.636 5.62694C137.194 5.62694 137.785 5.67992 138.408 5.78589C139.031 5.89186 139.622 6.06141 140.181 6.29454C140.761 6.52767 141.288 6.85617 141.76 7.28004C142.233 7.68272 142.609 8.20196 142.889 8.83777C143.168 9.45238 143.308 10.2048 143.308 11.0949V18.6928C143.308 19.6889 142.985 20.473 142.341 21.0453C141.696 21.5963 140.804 21.9778 139.665 22.1897C138.527 22.4229 137.184 22.5394 135.636 22.5394Z" fill="#05164D"/>
<path d="M152.926 22.5712C151.25 22.5712 149.971 22.1685 149.09 21.3632C148.209 20.5366 147.769 19.3498 147.769 17.8027V9.21925H145.255V6.04022H147.769V1.62135H151.991V6.04022H155.762V9.21925H151.991V17.1668C151.991 17.8238 152.12 18.3113 152.378 18.6292C152.636 18.9471 153.087 19.1061 153.732 19.1061C154.075 19.1061 154.43 19.0531 154.795 18.9471C155.182 18.8199 155.504 18.6716 155.762 18.502V21.999C155.332 22.2109 154.86 22.3593 154.344 22.444C153.85 22.5288 153.377 22.5712 152.926 22.5712Z" fill="#05164D"/>
<path d="M165.833 22.5394C164.328 22.5394 163.018 22.3063 161.9 21.84C160.804 21.3526 159.945 20.632 159.322 19.6783C158.72 18.7246 158.419 17.5059 158.419 16.0224V6.04022H162.513V15.6091C162.513 16.796 162.781 17.6755 163.319 18.2477C163.856 18.8199 164.694 19.1061 165.833 19.1061C167.014 19.1061 167.863 18.8199 168.379 18.2477C168.916 17.6755 169.185 16.796 169.185 15.6091V6.04022H173.053V16.0224C173.053 18.2265 172.408 19.869 171.119 20.9499C169.851 22.0096 168.089 22.5394 165.833 22.5394Z" fill="#05164D"/>
<path d="M181.199 22.5394C180.039 22.5394 179.05 22.4123 178.234 22.1579C177.417 21.9248 176.633 21.6387 175.881 21.2996V17.6755C176.375 17.9934 176.891 18.3007 177.428 18.5974C177.987 18.8729 178.578 19.0955 179.201 19.265C179.845 19.4346 180.533 19.5193 181.264 19.5193C182.123 19.5193 182.757 19.3604 183.165 19.0425C183.595 18.7034 183.81 18.3007 183.81 17.8344C183.81 17.3894 183.649 17.0503 183.326 16.8172C183.004 16.5628 182.585 16.3509 182.069 16.1813C181.554 16.0118 181.006 15.8422 180.426 15.6727C179.888 15.5455 179.34 15.376 178.782 15.1641C178.245 14.9521 177.75 14.666 177.299 14.3057C176.848 13.9454 176.483 13.4898 176.203 12.9387C175.945 12.3665 175.816 11.6777 175.816 10.8724C175.816 9.91864 176.01 9.11328 176.397 8.45628C176.783 7.79928 177.288 7.26944 177.911 6.86677C178.535 6.46409 179.222 6.17797 179.974 6.00842C180.726 5.81768 181.457 5.72231 182.166 5.72231C183.391 5.7647 184.379 5.91305 185.131 6.16738C185.883 6.40051 186.593 6.70781 187.259 7.0893L187.291 10.3637C186.539 9.96103 185.808 9.60074 185.099 9.28283C184.39 8.94374 183.584 8.77419 182.682 8.77419C181.844 8.77419 181.188 8.92254 180.716 9.21925C180.264 9.49477 180.039 9.88685 180.039 10.3955C180.039 10.8406 180.178 11.2009 180.458 11.4764C180.737 11.7519 181.102 11.9638 181.554 12.1122C182.005 12.2605 182.499 12.4089 183.036 12.5572C183.574 12.7056 184.132 12.8751 184.712 13.0659C185.293 13.2354 185.83 13.4898 186.324 13.8289C186.818 14.168 187.216 14.6236 187.517 15.1958C187.839 15.7469 188 16.4887 188 17.4212C187.979 18.6504 187.645 19.6465 187.001 20.4095C186.356 21.1512 185.507 21.6917 184.455 22.0308C183.423 22.3699 182.338 22.5394 181.199 22.5394Z" fill="#05164D"/>
<path d="M36.503 22.0625L31.088 6.04017H35.4716L39.3394 19.3603L38.0824 19.4875L41.789 6.04017H44.9477L48.5899 19.106H47.5907L51.3941 6.04017H55.6487L50.2338 22.0625H46.4949L42.9494 10.618L43.6585 10.8087L40.2741 22.0625H36.503Z" fill="#624DE3"/>
<path d="M63.8384 22.5394C61.1739 22.5394 59.1755 21.8082 57.8432 20.3458C56.511 18.8835 55.8449 16.7747 55.8449 14.0196C55.8449 11.0736 56.5217 8.9331 57.8755 7.5979C59.2507 6.2627 61.2276 5.59511 63.8061 5.59511C65.6111 5.59511 67.1153 5.91301 68.3186 6.54882C69.5219 7.16343 70.4137 8.09595 70.9938 9.34637C71.5955 10.5968 71.8963 12.1545 71.8963 14.0196C71.8963 16.7747 71.198 18.8835 69.8012 20.3458C68.426 21.8082 66.4384 22.5394 63.8384 22.5394ZM63.8384 19.2332C64.7838 19.2332 65.5466 19.0212 66.1268 18.5974C66.7285 18.1735 67.169 17.5801 67.4483 16.8171C67.7277 16.0329 67.8673 15.1004 67.8673 14.0196C67.8673 12.8115 67.7169 11.826 67.4161 11.0631C67.1368 10.3001 66.6963 9.73845 66.0946 9.37816C65.5144 9.01787 64.7623 8.83772 63.8384 8.83772C62.8929 8.83772 62.1301 9.02847 61.5499 9.40995C60.9697 9.79144 60.54 10.3637 60.2606 11.1266C60.0028 11.8896 59.8738 12.8539 59.8738 14.0196C59.8738 15.715 60.1854 17.0079 60.8086 17.898C61.4317 18.7881 62.4416 19.2332 63.8384 19.2332Z" fill="#624DE3"/>
<path d="M74.4099 22.0625V7.5979C74.7107 7.40716 75.2372 7.15283 75.9893 6.83493C76.7628 6.51703 77.6546 6.24151 78.6645 6.00838C79.6744 5.75406 80.6951 5.6269 81.7265 5.6269C82.5001 5.6269 83.1125 5.69048 83.5637 5.81764C84.0365 5.92361 84.4018 6.06136 84.6596 6.23091V9.28279C84.2299 9.21921 83.7356 9.16622 83.177 9.12384C82.6398 9.08145 82.0811 9.07085 81.5009 9.09205C80.9422 9.09205 80.3943 9.11324 79.8571 9.15563C79.3414 9.19802 78.8901 9.251 78.5033 9.31458V22.0625H74.4099Z" fill="#624DE3"/>
<path d="M89.7873 13.0023L96.0725 6.04017H101.068L91.8823 15.1322L89.7873 13.0023ZM90.6575 22.0625H86.5963V0H90.6897L90.6575 22.0625ZM92.7204 11.4445L101.681 22.0625H96.4915L89.8195 14.1467L92.7204 11.4445Z" fill="#624DE3"/>
<path fill-rule="evenodd" clip-rule="evenodd" d="M2.93193 11.7836C2.67167 13.9261 3.17605 16.0912 4.35839 17.9067C5.54073 19.7223 7.32721 21.075 9.41086 21.7324C11.4945 22.3898 13.7452 22.3108 15.7763 21.5091C17.8074 20.7074 19.4919 19.233 20.5406 17.3392C21.5892 15.4454 21.9364 13.2505 21.5226 11.1316C21.1087 9.01271 19.9596 7.10215 18.2727 5.72821C16.9576 4.65707 15.3796 3.96422 13.7113 3.71085L13.7113 5.41946C13.7113 6.19985 13.07 6.83248 12.2788 6.83248C11.4877 6.83248 10.8463 6.19985 10.8463 5.41946L10.8463 2.39158C10.8463 1.50658 11.5785 0.76152 12.5105 0.778858C15.2816 0.83041 17.9562 1.80552 20.0969 3.54907C22.2972 5.34117 23.7961 7.8332 24.3359 10.597C24.8757 13.3607 24.4228 16.2237 23.055 18.6938C21.6872 21.164 19.49 23.0872 16.8408 24.1329C14.1915 25.1786 11.2558 25.2815 8.53801 24.424C5.8202 23.5666 3.49 21.8022 1.94782 19.4341C0.405637 17.066 -0.252243 14.242 0.0872223 11.4474C0.426687 8.65278 1.7423 6.06204 3.80801 4.12033C4.38075 3.58197 5.28751 3.60351 5.83332 4.16846C6.37912 4.7334 6.35727 5.62781 5.78453 6.16618C4.20082 7.65483 3.19218 9.64106 2.93193 11.7836Z" fill="#05164D"/>
<path fill-rule="evenodd" clip-rule="evenodd" d="M7.17324 7.64995C7.73268 7.09814 8.6397 7.09814 9.19914 7.64995L13.7014 12.0909C14.2608 12.6427 14.2608 13.5373 13.7014 14.0892C13.1419 14.641 12.2349 14.641 11.6755 14.0892L7.17324 9.64826C6.6138 9.09644 6.6138 8.20177 7.17324 7.64995Z" fill="#624DE3"/>
</svg>
